<svg width="24" height="11" viewBox="0 0 24 11" fill="none" xmlns="http://www.w3.org/2000/svg">
<path opacity="0.35" d="M0.5 2.66667C0.5 1.47005 1.47005 0.5 2.66667 0.5H19.0367C20.2333 0.5 21.2034 1.47005 21.2034 2.66667V8.33333C21.2034 9.52995 20.2333 10.5 19.0367 10.5H2.66666C1.47005 10.5 0.5 9.52995 0.5 8.33333V2.66667Z" stroke="white"/>
<path opacity="0.4" d="M22.6898 3.55859V7.44095C23.4837 7.11213 24 6.34722 24 5.49977C24 4.65232 23.4837 3.88741 22.6898 3.55859Z" fill="white"/>
<path d="M1.97302 3.27474C1.97302 2.53836 2.56998 1.94141 3.30636 1.94141H18.397C19.1334 1.94141 19.7303 2.53836 19.7303 3.27474V7.72572C19.7303 8.4621 19.1334 9.05905 18.397 9.05905H3.30636C2.56998 9.05905 1.97302 8.4621 1.97302 7.72572V3.27474Z" fill="white"/>
</svg>
