<svg width="24" height="25" viewBox="0 0 24 25" fill="none" xmlns="http://www.w3.org/2000/svg">
<path fill-rule="evenodd" clip-rule="evenodd" d="M8.25 7.50151L8.25 6.5C8.25 4.42893 9.92893 2.75 12 2.75C14.0711 2.75 15.75 4.42893 15.75 6.5V7.5L15.75 7.50151C18.4344 7.5136 19.8606 7.6222 20.6606 8.59803C21.5608 9.69607 21.2287 11.3563 20.5646 14.6767L19.9646 17.6767C19.5029 19.9856 19.272 21.1401 18.4425 21.82C17.6131 22.5 16.4358 22.5 14.0812 22.5H9.9188C7.56417 22.5 6.38686 22.5 5.55742 21.82C4.72799 21.1401 4.4971 19.9856 4.03532 17.6767L3.43532 14.6767C2.77123 11.3563 2.43919 9.69607 3.33936 8.59803C4.13936 7.62219 5.56562 7.5136 8.25 7.50151ZM9.75 6.5C9.75 5.25736 10.7574 4.25 12 4.25C13.2426 4.25 14.25 5.25736 14.25 6.5V7.5H9.75V6.5ZM15 11.5C15.5523 11.5 16 11.0523 16 10.5C16 9.94772 15.5523 9.5 15 9.5C14.4477 9.5 14 9.94772 14 10.5C14 11.0523 14.4477 11.5 15 11.5ZM9.99998 10.5C9.99998 11.0523 9.55226 11.5 8.99998 11.5C8.44769 11.5 7.99998 11.0523 7.99998 10.5C7.99998 9.94772 8.44769 9.5 8.99998 9.5C9.55226 9.5 9.99998 9.94772 9.99998 10.5Z" fill="white"/>
</svg>
