<svg width="20" height="20" viewBox="0 0 20 20" fill="none" xmlns="http://www.w3.org/2000/svg">
<path fill-rule="evenodd" clip-rule="evenodd" d="M10.0002 1.66675C6.31826 1.66675 3.3335 5.00223 3.3335 8.75008C3.3335 12.4686 5.46127 16.5104 8.78105 18.0621C9.55495 18.4238 10.4454 18.4238 11.2193 18.0621C14.5391 16.5104 16.6668 12.4686 16.6668 8.75008C16.6668 5.00223 13.6821 1.66675 10.0002 1.66675ZM10.0002 10.0001C10.9206 10.0001 11.6668 9.25389 11.6668 8.33341C11.6668 7.41294 10.9206 6.66675 10.0002 6.66675C9.07969 6.66675 8.3335 7.41294 8.3335 8.33341C8.3335 9.25389 9.07969 10.0001 10.0002 10.0001Z" fill="url(#paint0_linear_484_245)"/>
<defs>
<linearGradient id="paint0_linear_484_245" x1="3.3335" y1="1.66675" x2="20.6675" y2="10.3126" gradientUnits="userSpaceOnUse">
<stop stop-color="#3875EB"/>
<stop offset="1" stop-color="#C0D7FF"/>
</linearGradient>
</defs>
</svg>
