<svg width="20" height="20" viewBox="0 0 20 20" fill="none" xmlns="http://www.w3.org/2000/svg">
<path fill-rule="evenodd" clip-rule="evenodd" d="M17.5839 6.66961C17.5367 6.66663 17.4853 6.66665 17.432 6.66667L17.4187 6.66667H15.3283C13.6052 6.66667 12.1309 8.02297 12.1309 9.79167C12.1309 11.5604 13.6052 12.9167 15.3283 12.9167H17.4187L17.432 12.9167C17.4853 12.9167 17.5367 12.9167 17.5839 12.9137C18.2838 12.8695 18.9028 12.3218 18.9548 11.5568C18.9582 11.5067 18.9582 11.4526 18.9582 11.4025L18.9582 11.3889V8.19445L18.9582 8.18085C18.9582 8.13073 18.9582 8.07666 18.9548 8.0265C18.9028 7.2615 18.2838 6.71381 17.5839 6.66961ZM15.1429 10.625C15.5865 10.625 15.9461 10.2519 15.9461 9.79167C15.9461 9.33143 15.5865 8.95833 15.1429 8.95833C14.6993 8.95833 14.3397 9.33143 14.3397 9.79167C14.3397 10.2519 14.6993 10.625 15.1429 10.625Z" fill="url(#paint0_linear_484_165)"/>
<path fill-rule="evenodd" clip-rule="evenodd" d="M17.4314 14.1667C17.5557 14.1635 17.6497 14.2785 17.616 14.3982C17.4487 14.9919 17.1832 15.4979 16.7571 15.924C16.1335 16.5476 15.3427 16.8244 14.3657 16.9557C13.4163 17.0834 12.2033 17.0833 10.6718 17.0833H8.91116C7.37969 17.0833 6.16666 17.0834 5.21732 16.9557C4.2403 16.8244 3.44951 16.5476 2.82587 15.924C2.20224 15.3003 1.92547 14.5095 1.79412 13.5325C1.66648 12.5832 1.66649 11.3701 1.6665 9.83868V9.74465C1.66649 8.21319 1.66648 7.00016 1.79412 6.05082C1.92547 5.0738 2.20224 4.28301 2.82587 3.65937C3.44951 3.03573 4.2403 2.75897 5.21732 2.62761C6.16666 2.49998 7.37969 2.49999 8.91116 2.5L10.6719 2.5C12.2033 2.49999 13.4163 2.49998 14.3657 2.62761C15.3427 2.75897 16.1335 3.03573 16.7571 3.65937C17.1832 4.08544 17.4487 4.59145 17.616 5.18515C17.6497 5.3048 17.5557 5.41989 17.4314 5.41667L15.3282 5.41667C12.9643 5.41667 10.8808 7.28409 10.8808 9.79167C10.8808 12.2993 12.9643 14.1667 15.3282 14.1667L17.4314 14.1667ZM4.7915 5.83333C4.44633 5.83333 4.1665 6.11316 4.1665 6.45833C4.1665 6.80351 4.44633 7.08333 4.7915 7.08333H8.12484C8.47002 7.08333 8.74984 6.80351 8.74984 6.45833C8.74984 6.11316 8.47002 5.83333 8.12484 5.83333H4.7915Z" fill="url(#paint1_linear_484_165)"/>
<defs>
<linearGradient id="paint0_linear_484_165" x1="1.6665" y1="2.5" x2="19.8187" y2="15.9193" gradientUnits="userSpaceOnUse">
<stop stop-color="#3875EB"/>
<stop offset="1" stop-color="#C0D7FF"/>
</linearGradient>
<linearGradient id="paint1_linear_484_165" x1="1.6665" y1="2.5" x2="19.8187" y2="15.9193" gradientUnits="userSpaceOnUse">
<stop stop-color="#3875EB"/>
<stop offset="1" stop-color="#C0D7FF"/>
</linearGradient>
</defs>
</svg>
