<svg width="20" height="20" viewBox="0 0 20 20" fill="none" xmlns="http://www.w3.org/2000/svg">
<path fill-rule="evenodd" clip-rule="evenodd" d="M8.32902 3.33325H11.6707C14.8212 3.33325 16.3964 3.33325 17.3752 4.30956C18.0491 4.98178 18.259 5.93608 18.3244 7.49114C18.3373 7.79954 18.3438 7.95373 18.2862 8.05661C18.2286 8.15948 17.9987 8.28786 17.5389 8.54463C17.0283 8.8298 16.6831 9.37465 16.6831 9.99992C16.6831 10.6252 17.0283 11.17 17.5389 11.4552C17.9987 11.712 18.2286 11.8404 18.2862 11.9432C18.3438 12.0461 18.3373 12.2003 18.3244 12.5087C18.259 14.0638 18.0491 15.0181 17.3752 15.6903C16.3964 16.6666 14.8212 16.6666 11.6707 16.6666H8.32902C5.17849 16.6666 3.60323 16.6666 2.62449 15.6903C1.9506 15.0181 1.7407 14.0638 1.67532 12.5087C1.66235 12.2003 1.65587 12.0461 1.71346 11.9432C1.77104 11.8404 2.00095 11.712 2.46074 11.4552C2.97138 11.17 3.31656 10.6252 3.31656 9.99992C3.31656 9.37465 2.97138 8.8298 2.46074 8.54463C2.00094 8.28786 1.77104 8.15948 1.71346 8.05661C1.65587 7.95373 1.66235 7.79954 1.67532 7.49114C1.7407 5.93608 1.9506 4.98178 2.62449 4.30956C3.60323 3.33325 5.17849 3.33325 8.32902 3.33325ZM12.9564 7.05798C13.2011 7.30205 13.2011 7.69778 12.9564 7.94186L7.94391 12.9419C7.69922 13.1859 7.30251 13.1859 7.05783 12.9419C6.81314 12.6978 6.81314 12.3021 7.05783 12.058L12.0703 7.05798C12.315 6.8139 12.7117 6.8139 12.9564 7.05798ZM12.0956 12.9166C12.557 12.9166 12.931 12.5435 12.931 12.0833C12.931 11.623 12.557 11.2499 12.0956 11.2499C11.6342 11.2499 11.2602 11.623 11.2602 12.0833C11.2602 12.5435 11.6342 12.9166 12.0956 12.9166ZM7.91857 8.74992C8.37996 8.74992 8.75398 8.37682 8.75398 7.91658C8.75398 7.45635 8.37996 7.08325 7.91857 7.08325C7.45719 7.08325 7.08316 7.45635 7.08316 7.91658C7.08316 8.37682 7.45719 8.74992 7.91857 8.74992Z" fill="url(#paint0_linear_484_174)"/>
<defs>
<linearGradient id="paint0_linear_484_174" x1="1.6665" y1="3.33325" x2="18.5001" y2="16.4524" gradientUnits="userSpaceOnUse">
<stop stop-color="#3875EB"/>
<stop offset="1" stop-color="#C0D7FF"/>
</linearGradient>
</defs>
</svg>
