<svg width="50" height="50" viewBox="0 0 50 50" fill="none" xmlns="http://www.w3.org/2000/svg">
<path fill-rule="evenodd" clip-rule="evenodd" d="M36.178 9.93161C33.5131 7.73085 29.4728 7.99687 27.1537 10.5258L20.3178 17.98C21.5617 19.9833 22.6925 21.4222 23.9804 22.5682C25.9578 21.0265 28.4907 20.0999 31.2501 20.0999C32.5006 20.0999 33.7061 20.2903 34.8348 20.6429L36.8042 18.4954C39.1233 15.9665 38.8429 12.1324 36.178 9.93161ZM9.30559 26.9768L25.5821 9.22792C28.6565 5.87536 34.0128 5.52271 37.5457 8.44024C41.0785 11.3578 41.4502 16.4407 38.3757 19.7933L35.4486 22.9851L34.7601 22.7211C33.6773 22.3059 32.4932 22.0769 31.2501 22.0769C28.661 22.0769 26.3186 23.0716 24.621 24.6826C22.9233 26.2936 21.8751 28.5164 21.8751 30.9734C21.8751 32.5913 22.3292 34.1055 23.1224 35.4108L23.4937 36.0216L23.0059 36.5535C21.426 38.2763 19.3512 39.6323 17.0785 40.1035C14.7627 40.5836 12.3106 40.126 10.1356 38.3298C6.60277 35.4123 6.23115 30.3294 9.30559 26.9768Z" fill="url(#paint0_linear_200_374)"/>
<path fill-rule="evenodd" clip-rule="evenodd" d="M34.2593 11.6889C34.403 11.1318 34.0679 10.5637 33.5109 10.42C30.2005 9.56596 28.1808 11.8896 27.3753 12.8164C27.363 12.8305 27.351 12.8444 27.3392 12.8579C26.9616 13.2918 27.0072 13.9498 27.4412 14.3275C27.8752 14.7051 28.5331 14.6595 28.9108 14.2255C29.7583 13.2517 30.9831 11.9194 32.9904 12.4373C33.5475 12.581 34.1156 12.2459 34.2593 11.6889Z" fill="url(#paint1_linear_200_374)"/>
<path fill-rule="evenodd" clip-rule="evenodd" d="M31.25 22.9168C26.0723 22.9168 21.875 27.1142 21.875 32.2918C21.875 37.4695 26.0723 41.6668 31.25 41.6668C36.4276 41.6668 40.625 37.4695 40.625 32.2918C40.625 27.1142 36.4276 22.9168 31.25 22.9168ZM19.7916 32.2918C19.7916 25.9636 24.9217 20.8335 31.25 20.8335C37.5782 20.8335 42.7083 25.9636 42.7083 32.2918C42.7083 38.6201 37.5782 43.7502 31.25 43.7502C24.9217 43.7502 19.7916 38.6201 19.7916 32.2918Z" fill="url(#paint2_linear_200_374)"/>
<path fill-rule="evenodd" clip-rule="evenodd" d="M23.2006 34.4483C23.0517 33.8926 23.3815 33.3214 23.9372 33.1725L38.0236 29.3981C38.5793 29.2492 39.1505 29.579 39.2994 30.1347C39.4483 30.6904 39.1185 31.2615 38.5628 31.4104L24.4764 35.1849C23.9207 35.3338 23.3495 35.004 23.2006 34.4483Z" fill="url(#paint3_linear_200_374)"/>
<defs>
<linearGradient id="paint0_linear_200_374" x1="7.22241" y1="6.46338" x2="46.4519" y2="30.5012" gradientUnits="userSpaceOnUse">
<stop stop-color="#3875EB"/>
<stop offset="1" stop-color="#C0D7FF"/>
</linearGradient>
<linearGradient id="paint1_linear_200_374" x1="34.7206" y1="11.3267" x2="28.2275" y2="9.08662" gradientUnits="userSpaceOnUse">
<stop stop-color="#3875EB"/>
<stop offset="1" stop-color="#C0D7FF"/>
</linearGradient>
<linearGradient id="paint2_linear_200_374" x1="19.7916" y1="20.8335" x2="46.5822" y2="37.5367" gradientUnits="userSpaceOnUse">
<stop stop-color="#3875EB"/>
<stop offset="1" stop-color="#C0D7FF"/>
</linearGradient>
<linearGradient id="paint3_linear_200_374" x1="22.931" y1="33.4421" x2="25.2908" y2="38.209" gradientUnits="userSpaceOnUse">
<stop stop-color="#3875EB"/>
<stop offset="1" stop-color="#C0D7FF"/>
</linearGradient>
</defs>
</svg>
