<svg width="50" height="50" viewBox="0 0 50 50" fill="none" xmlns="http://www.w3.org/2000/svg">
<path fill-rule="evenodd" clip-rule="evenodd" d="M36.178 10.1181C33.5131 7.79901 29.4728 8.07934 27.1537 10.7442L20.3178 18.5994C21.5617 20.7104 22.6925 22.2267 23.9804 23.4343C25.9578 21.8097 28.4907 20.8332 31.2501 20.8332C32.5006 20.8332 33.7061 21.0339 34.8348 21.4054L36.8042 19.1425C39.1233 16.4776 38.8429 12.4372 36.178 10.1181ZM9.30559 28.08L25.5821 9.3766C28.6565 5.84374 34.0128 5.47212 37.5457 8.54656C41.0785 11.621 41.4502 16.9773 38.3757 20.5101L35.4486 23.8737L34.7601 23.5955C33.6773 23.158 32.4932 22.9166 31.2501 22.9166C28.661 22.9166 26.3186 23.9648 24.621 25.6624C22.9233 27.3601 21.8751 29.7024 21.8751 32.2916C21.8751 33.9965 22.3292 35.5921 23.1224 36.9675L23.4937 37.6112L23.0059 38.1718C21.426 39.9872 19.3512 41.4161 17.0785 41.9127C14.7627 42.4186 12.3106 41.9364 10.1356 40.0436C6.60277 36.9692 6.23115 31.6129 9.30559 28.08Z" fill="url(#paint0_linear_180_573)"/>
<path fill-rule="evenodd" clip-rule="evenodd" d="M34.2594 11.6889C34.4031 11.1318 34.068 10.5637 33.511 10.42C30.2006 9.56596 28.181 11.8896 27.3754 12.8164C27.3631 12.8305 27.3511 12.8444 27.3393 12.8579C26.9617 13.2918 27.0073 13.9498 27.4413 14.3275C27.8753 14.7051 28.5333 14.6595 28.9109 14.2255C29.7584 13.2517 30.9832 11.9194 32.9906 12.4373C33.5476 12.581 34.1157 12.2459 34.2594 11.6889Z" fill="url(#paint1_linear_180_573)"/>
<path fill-rule="evenodd" clip-rule="evenodd" d="M31.2501 22.9168C26.0724 22.9168 21.8751 27.1142 21.8751 32.2918C21.8751 37.4695 26.0724 41.6668 31.2501 41.6668C36.4277 41.6668 40.6251 37.4695 40.6251 32.2918C40.6251 27.1142 36.4277 22.9168 31.2501 22.9168ZM19.7917 32.2918C19.7917 25.9636 24.9218 20.8335 31.2501 20.8335C37.5783 20.8335 42.7084 25.9636 42.7084 32.2918C42.7084 38.6201 37.5783 43.7502 31.2501 43.7502C24.9218 43.7502 19.7917 38.6201 19.7917 32.2918Z" fill="url(#paint2_linear_180_573)"/>
<path fill-rule="evenodd" clip-rule="evenodd" d="M23.2008 34.4486C23.0519 33.8929 23.3816 33.3217 23.9373 33.1728L38.0237 29.3983C38.5794 29.2494 39.1506 29.5792 39.2995 30.1349C39.4484 30.6906 39.1186 31.2618 38.563 31.4107L24.4765 35.1851C23.9208 35.334 23.3497 35.0042 23.2008 34.4486Z" fill="url(#paint3_linear_180_573)"/>
<defs>
<linearGradient id="paint0_linear_180_573" x1="7.22241" y1="6.46338" x2="47.5467" y2="29.911" gradientUnits="userSpaceOnUse">
<stop stop-color="#3875EB"/>
<stop offset="1" stop-color="#C0D7FF"/>
</linearGradient>
<linearGradient id="paint1_linear_180_573" x1="34.7207" y1="11.3267" x2="28.2276" y2="9.08662" gradientUnits="userSpaceOnUse">
<stop stop-color="#3875EB"/>
<stop offset="1" stop-color="#C0D7FF"/>
</linearGradient>
<linearGradient id="paint2_linear_180_573" x1="19.7917" y1="20.8335" x2="46.5823" y2="37.5367" gradientUnits="userSpaceOnUse">
<stop stop-color="#3875EB"/>
<stop offset="1" stop-color="#C0D7FF"/>
</linearGradient>
<linearGradient id="paint3_linear_180_573" x1="22.9312" y1="33.4424" x2="25.2909" y2="38.2093" gradientUnits="userSpaceOnUse">
<stop stop-color="#3875EB"/>
<stop offset="1" stop-color="#C0D7FF"/>
</linearGradient>
</defs>
</svg>
