<svg width="20" height="13" viewBox="0 0 20 13" fill="none" xmlns="http://www.w3.org/2000/svg">
<path fill-rule="evenodd" clip-rule="evenodd" d="M19.7878 1.68187C19.7878 1.04883 19.3102 0.535645 18.7211 0.535645H17.6544C17.0653 0.535645 16.5878 1.04883 16.5878 1.68187V11.6158C16.5878 12.2489 17.0653 12.7621 17.6544 12.7621H18.7211C19.3102 12.7621 19.7878 12.2489 19.7878 11.6158V1.68187ZM12.3537 2.98093H13.4203C14.0094 2.98093 14.487 3.50643 14.487 4.15466V11.5883C14.487 12.2366 14.0094 12.7621 13.4203 12.7621H12.3537C11.7646 12.7621 11.287 12.2366 11.287 11.5883V4.15466C11.287 3.50643 11.7646 2.98093 12.3537 2.98093ZM8.02188 5.62997H6.95522C6.36611 5.62997 5.88855 6.16216 5.88855 6.81865V11.5734C5.88855 12.2299 6.36611 12.762 6.95522 12.762H8.02188C8.61099 12.762 9.08855 12.2299 9.08855 11.5734V6.81865C9.08855 6.16216 8.61099 5.62997 8.02188 5.62997ZM2.7211 8.07527H1.65444C1.06533 8.07527 0.587769 8.59985 0.587769 9.24697V11.5904C0.587769 12.2375 1.06533 12.7621 1.65444 12.7621H2.7211C3.31021 12.7621 3.78777 12.2375 3.78777 11.5904V9.24697C3.78777 8.59985 3.31021 8.07527 2.7211 8.07527Z" fill="black"/>
</svg>
