<svg width="20" height="13" viewBox="0 0 20 13" fill="none" xmlns="http://www.w3.org/2000/svg">
<path fill-rule="evenodd" clip-rule="evenodd" d="M19.7879 1.68187C19.7879 1.04883 19.3103 0.535645 18.7212 0.535645H17.6546C17.0655 0.535645 16.5879 1.04883 16.5879 1.68187V11.6158C16.5879 12.2489 17.0655 12.7621 17.6546 12.7621H18.7212C19.3103 12.7621 19.7879 12.2489 19.7879 11.6158V1.68187ZM12.3538 2.98093H13.4204C14.0095 2.98093 14.4871 3.50643 14.4871 4.15466V11.5883C14.4871 12.2366 14.0095 12.7621 13.4204 12.7621H12.3538C11.7647 12.7621 11.2871 12.2366 11.2871 11.5883V4.15466C11.2871 3.50643 11.7647 2.98093 12.3538 2.98093ZM8.02201 5.62997H6.95534C6.36623 5.62997 5.88867 6.16216 5.88867 6.81865V11.5734C5.88867 12.2299 6.36623 12.762 6.95534 12.762H8.02201C8.61111 12.762 9.08867 12.2299 9.08867 11.5734V6.81865C9.08867 6.16216 8.61111 5.62997 8.02201 5.62997ZM2.72122 8.07527H1.65456C1.06545 8.07527 0.587891 8.59985 0.587891 9.24697V11.5904C0.587891 12.2375 1.06545 12.7621 1.65456 12.7621H2.72122C3.31033 12.7621 3.78789 12.2375 3.78789 11.5904V9.24697C3.78789 8.59985 3.31033 8.07527 2.72122 8.07527Z" fill="white"/>
</svg>
