<svg width="20" height="20" viewBox="0 0 20 20" fill="none" xmlns="http://www.w3.org/2000/svg">
<g clip-path="url(#clip0_106_2565)">
<path d="M9.99992 6.66683C8.15825 6.66683 6.66659 8.1585 6.66659 10.0002C6.66659 11.8418 8.15825 13.3335 9.99992 13.3335C11.8416 13.3335 13.3333 11.8418 13.3333 10.0002C13.3333 8.1585 11.8416 6.66683 9.99992 6.66683ZM17.4499 9.16683C17.2612 7.47693 16.5034 5.90144 15.301 4.69907C14.0986 3.4967 12.5232 2.73892 10.8333 2.55016V0.833496H9.16659V2.55016C7.47669 2.73892 5.9012 3.4967 4.69883 4.69907C3.49646 5.90144 2.73868 7.47693 2.54992 9.16683H0.833252V10.8335H2.54992C2.73868 12.5234 3.49646 14.0989 4.69883 15.3013C5.9012 16.5036 7.47669 17.2614 9.16659 17.4502V19.1668H10.8333V17.4502C12.5232 17.2614 14.0986 16.5036 15.301 15.3013C16.5034 14.0989 17.2612 12.5234 17.4499 10.8335H19.1666V9.16683H17.4499ZM9.99992 15.8335C6.77492 15.8335 4.16659 13.2252 4.16659 10.0002C4.16659 6.77516 6.77492 4.16683 9.99992 4.16683C13.2249 4.16683 15.8333 6.77516 15.8333 10.0002C15.8333 13.2252 13.2249 15.8335 9.99992 15.8335Z" fill="#101010"/>
</g>
<defs>
<clipPath id="clip0_106_2565">
<rect width="20" height="20" fill="white"/>
</clipPath>
</defs>
</svg>
