<svg width="28" height="28" viewBox="0 0 28 28" fill="none" xmlns="http://www.w3.org/2000/svg">
<path d="M24.5942 23.6856L20.7993 19.9754L20.7104 19.8402C20.545 19.6755 20.3188 19.5828 20.0828 19.5828C19.8468 19.5828 19.6207 19.6755 19.4553 19.8402C16.2302 22.7989 11.2607 22.9597 7.84259 20.216C4.42445 17.4722 3.61832 12.6753 5.95881 9.00647C8.29931 5.33766 13.0602 3.93544 17.084 5.72976C21.1078 7.52408 23.146 11.9581 21.8468 16.0913C21.7533 16.3899 21.8298 16.7146 22.0475 16.9431C22.2652 17.1716 22.591 17.2692 22.9023 17.1992C23.2136 17.1291 23.463 16.902 23.5565 16.6034C25.1096 11.6985 22.764 6.42022 18.0371 4.18297C13.3101 1.94572 7.6205 3.42095 4.64877 7.65434C1.67704 11.8877 2.31506 17.6088 6.15008 21.1166C9.9851 24.6244 15.8662 24.8662 19.9889 21.6856L23.349 24.9707C23.696 25.3085 24.257 25.3085 24.6041 24.9707C24.9507 24.6281 24.9507 24.0765 24.6041 23.734L24.5942 23.6856Z" fill="#8C98BE"/>
</svg>
