<svg width="50" height="50" viewBox="0 0 50 50" fill="none" xmlns="http://www.w3.org/2000/svg">
<path d="M17.9166 37.5C15.5004 37.5 13.5416 39.4588 13.5416 41.875C13.5416 42.9105 14.3811 43.75 15.4166 43.75H34.5833C35.6188 43.75 36.4583 42.9105 36.4583 41.875C36.4583 39.4588 34.4995 37.5 32.0833 37.5H17.9166Z" fill="url(#paint0_linear_169_556)"/>
<path fill-rule="evenodd" clip-rule="evenodd" d="M37.7345 7.12383C36.8679 5.99262 35.211 5.62863 33.9592 6.53963C33.8249 6.63739 33.7016 6.75058 33.5918 6.87594C33.3632 6.69453 33.1018 6.54167 32.7906 6.44762C32.5103 6.36289 32.2181 6.32419 31.9254 6.33302C31.4029 6.34878 30.9651 6.54481 30.5763 6.78133C30.2147 7.00132 29.8075 7.31331 29.35 7.66384L18.8522 15.706C18.6285 15.8771 18.4158 16.0396 18.2501 16.2216C17.5311 17.0118 17.3472 18.1455 17.7658 19.1161L16.3721 20.1847C16.1414 20.3614 15.9313 20.5224 15.7635 20.6687C15.5838 20.8254 15.3992 21.0098 15.2506 21.2507C14.8765 21.857 14.7789 22.5942 14.9824 23.2771C15.0632 23.5482 15.1935 23.7744 15.3262 23.9724C15.4502 24.1573 15.6112 24.3674 15.7879 24.598L15.8225 24.6431C15.9992 24.8738 16.1602 25.084 16.3065 25.2518C16.4631 25.4314 16.6476 25.6161 16.8884 25.7647C17.4948 26.1387 18.232 26.2363 18.9148 26.0329C19.186 25.9521 19.4122 25.8217 19.6101 25.689C19.7951 25.5651 20.0051 25.4041 20.2358 25.2273L21.7557 24.0636C22.5395 24.4529 23.5097 24.3911 24.2513 23.8229L29.5255 19.7825C30.1095 20.3012 30.8411 20.6589 31.6497 20.7841C31.9921 21.3241 32.2688 21.9061 32.4721 22.5181C32.9078 23.8297 32.9905 25.233 32.712 26.5867C32.4334 27.9405 31.8035 29.197 30.8854 30.2301C29.9673 31.2633 28.7934 32.0365 27.4818 32.4722C26.1701 32.9078 24.7669 32.9905 23.4131 32.712C23.0766 32.6428 22.6506 32.4716 22.1899 32.2432C22.6113 32.1097 22.9167 31.7155 22.9167 31.2499C22.9167 30.6747 22.4503 30.2083 21.875 30.2083H13.5417C12.9664 30.2083 12.5 30.6747 12.5 31.2499C12.5 31.8252 12.9664 32.2916 13.5417 32.2916H13.6363C13.7931 32.5092 13.9987 32.7897 14.2305 33.0936C14.7339 33.7534 15.4183 34.6012 16.0046 35.1222C17.7814 36.7013 19.9426 37.7847 22.2709 38.2638C24.5992 38.7428 27.0125 38.6006 29.2684 37.8513C31.5243 37.102 33.5432 35.7721 35.1222 33.9953C36.7012 32.2184 37.7847 30.0573 38.2637 27.729C38.7428 25.4007 38.6005 22.9873 37.8512 20.7314C37.4846 19.6276 36.9789 18.5805 36.3499 17.6138C36.4209 17.3089 36.4583 16.9917 36.4583 16.6666C36.4583 15.9978 36.3002 15.365 36.0197 14.8044C36.1554 14.6973 36.2793 14.596 36.3881 14.4996C36.6139 14.2993 36.8354 14.0684 37.0013 13.7668C37.3152 13.1961 37.4124 12.5323 37.277 11.8971C37.4706 11.8147 37.6528 11.706 37.8162 11.5744C39.0217 10.6029 39.1016 8.9083 38.235 7.77708L37.7345 7.12383ZM16.2466 32.2916C16.6514 32.7995 17.0665 33.2788 17.3885 33.565C18.892 34.9011 20.7206 35.8178 22.6907 36.2232C24.6608 36.6285 26.7029 36.5082 28.6117 35.8741C30.5205 35.2401 32.2288 34.1148 33.5649 32.6114C34.901 31.1079 35.8178 29.2792 36.2231 27.3091C36.6285 25.339 36.5081 23.297 35.8741 21.3881C35.6796 20.8026 35.4389 20.2359 35.1552 19.6931C34.7899 20.0389 34.3619 20.3194 33.8899 20.5157C34.1082 20.9485 34.2954 21.3981 34.4492 21.8614C35.0002 23.5201 35.1048 25.2946 34.7526 27.0066C34.4003 28.7185 33.6037 30.3076 32.4426 31.614C31.2816 32.9205 29.7972 33.8984 28.1385 34.4493C26.4798 35.0002 24.7052 35.1048 22.9933 34.7526C21.9297 34.5338 20.6466 33.8153 19.7273 33.2425C19.2452 32.9421 18.8206 32.6542 18.5167 32.4415C18.4378 32.3863 18.3667 32.3359 18.3047 32.2916H16.2466ZM17.662 21.8209L18.9676 20.8199L20.2977 22.5561L18.9913 23.5563C18.7308 23.7559 18.5735 23.8758 18.4501 23.9586C18.3633 24.0167 18.3259 24.0336 18.3182 24.0368C18.2055 24.0698 18.084 24.0538 17.9838 23.9925C17.9772 23.9875 17.9455 23.9614 17.8768 23.8827C17.7792 23.7707 17.6585 23.614 17.4589 23.3535C17.2593 23.093 17.1394 22.9358 17.0567 22.8123C16.9985 22.7256 16.9816 22.6882 16.9785 22.6805C16.9454 22.5678 16.9615 22.4463 17.0227 22.346C17.0278 22.3394 17.0538 22.3077 17.1326 22.239C17.2446 22.1414 17.4015 22.0205 17.662 21.8209ZM35.1851 8.2241C35.4423 8.03689 35.8396 8.07607 36.0807 8.39079L36.5812 9.04404C36.8223 9.35876 36.7567 9.75258 36.509 9.95221C36.4652 9.98746 36.431 9.99488 36.4171 9.99632L36.4097 9.98739L35.1253 8.31078L35.1216 8.30567C35.1248 8.2926 35.1393 8.25739 35.1851 8.2241ZM30.2083 16.6666C30.2083 15.516 31.141 14.5833 32.2916 14.5833C32.9054 14.5833 33.4561 14.8474 33.8388 15.2714C34.1729 15.6415 34.3749 16.1292 34.3749 16.6666C34.3749 16.9409 34.3225 17.2005 34.2279 17.4375C33.9207 18.2083 33.1681 18.7499 32.2916 18.7499C31.5588 18.7499 30.9136 18.3724 30.5408 17.7964C30.3305 17.4715 30.2083 17.0849 30.2083 16.6666Z" fill="url(#paint1_linear_169_556)"/>
<defs>
<linearGradient id="paint0_linear_169_556" x1="13.5416" y1="37.5" x2="19.5172" y2="51.1606" gradientUnits="userSpaceOnUse">
<stop stop-color="#3875EB"/>
<stop offset="1" stop-color="#C0D7FF"/>
</linearGradient>
<linearGradient id="paint1_linear_169_556" x1="12.5" y1="6.02539" x2="46.5515" y2="23.2061" gradientUnits="userSpaceOnUse">
<stop stop-color="#3875EB"/>
<stop offset="1" stop-color="#C0D7FF"/>
</linearGradient>
</defs>
</svg>
