<svg width="26" height="26" viewBox="0 0 26 26" fill="none" xmlns="http://www.w3.org/2000/svg">
<path fill-rule="evenodd" clip-rule="evenodd" d="M6.09314 4.79302C4.2959 5.61455 2.97925 7.56857 2.97925 9.89867C2.97925 12.2792 3.9534 14.1141 5.34989 15.6866C6.50087 16.9826 7.89415 18.0567 9.25297 19.1043C9.5757 19.3531 9.89649 19.6004 10.2116 19.8489C10.7815 20.2981 11.2898 20.6924 11.7798 20.9787C12.2701 21.2652 12.6647 21.396 13.0001 21.396C13.3355 21.396 13.7301 21.2652 14.2203 20.9787C14.7103 20.6924 15.2187 20.2981 15.7885 19.8489C16.1037 19.6004 16.4245 19.3531 16.7472 19.1043C18.106 18.0567 19.4993 16.9826 20.6503 15.6866C22.0468 14.1141 23.0209 12.2792 23.0209 9.89867C23.0209 7.56857 21.7043 5.61455 19.907 4.79302C18.161 3.99491 15.8149 4.20627 13.5855 6.52261C13.4323 6.68175 13.221 6.77167 13.0001 6.77167C12.7792 6.77167 12.5679 6.68175 12.4147 6.52261C10.1852 4.20627 7.83916 3.99491 6.09314 4.79302ZM13.0001 4.83053C10.4954 2.58958 7.69062 2.27609 5.41757 3.31511C3.01685 4.41248 1.35425 6.9606 1.35425 9.89867C1.35425 12.7863 2.55729 14.9892 4.13486 16.7656C5.39819 18.1882 6.94449 19.3788 8.31014 20.4303C8.61972 20.6686 8.92001 20.8999 9.20562 21.125C9.76054 21.5625 10.3563 22.0289 10.96 22.3817C11.5634 22.7344 12.2521 23.021 13.0001 23.021C13.748 23.021 14.4367 22.7344 15.0402 22.3817C15.6439 22.0289 16.2396 21.5625 16.7945 21.125C17.0802 20.8999 17.3804 20.6686 17.69 20.4303C19.0557 19.3788 20.602 18.1882 21.8653 16.7656C23.4429 14.9892 24.6459 12.7863 24.6459 9.89867C24.6459 6.9606 22.9833 4.41248 20.5826 3.31511C18.3095 2.27609 15.5048 2.58958 13.0001 4.83053Z" fill="#FF6347"/>
</svg>
