<svg width="24" height="25" viewBox="0 0 24 25" fill="none" xmlns="http://www.w3.org/2000/svg">
<path fill-rule="evenodd" clip-rule="evenodd" d="M2.24872 2.79242C1.85795 2.65503 1.4298 2.86044 1.29242 3.2512C1.15503 3.64197 1.36044 4.07012 1.7512 4.2075L2.01241 4.29934C2.68002 4.53406 3.11877 4.68961 3.44162 4.84802C3.74484 4.9968 3.87851 5.11723 3.96657 5.24609C4.05683 5.37818 4.12653 5.5596 4.16587 5.92295C4.20702 6.30316 4.20804 6.79837 4.20804 7.53832V10.26C4.20804 11.7125 4.22167 12.7598 4.35872 13.5601C4.50505 14.4144 4.79718 15.026 5.34341 15.6022C5.93727 16.2285 6.69008 16.5012 7.58632 16.6283C8.44455 16.75 9.5344 16.75 10.8801 16.75L16.2858 16.75C17.0275 16.75 17.6516 16.75 18.1565 16.6882C18.6923 16.6226 19.1809 16.4793 19.6074 16.1318C20.0339 15.7842 20.2729 15.3346 20.4452 14.8231C20.6077 14.341 20.7336 13.7299 20.8833 13.0034L21.3923 10.5341L21.3932 10.5295L21.4037 10.4772C21.5683 9.65234 21.7069 8.95845 21.7413 8.40034C21.7775 7.81414 21.7108 7.23613 21.3289 6.73974C21.094 6.43432 20.7636 6.26141 20.4631 6.15583C20.1566 6.04814 19.8101 5.98584 19.4603 5.94674C18.7733 5.86993 17.9386 5.86995 17.12 5.86996L5.66784 5.86996C5.66456 5.83321 5.661 5.79706 5.65715 5.76153C5.60342 5.26515 5.48701 4.81243 5.20503 4.39979C4.92085 3.98393 4.543 3.71759 4.10237 3.50139C3.69028 3.29919 3.16665 3.11511 2.55012 2.89838L2.24872 2.79242ZM5.70803 7.36996H17.0888C17.9452 7.36996 18.6989 7.37096 19.2937 7.43745C19.5892 7.47049 19.8104 7.51639 19.9659 7.57101C20.0929 7.61565 20.1359 7.6521 20.1421 7.65737C20.1424 7.65759 20.142 7.65726 20.1421 7.65737C20.2034 7.73878 20.2702 7.88648 20.2442 8.30793C20.2168 8.7515 20.1003 9.34376 19.9227 10.2337L19.9222 10.2359L19.4234 12.656C19.2621 13.4389 19.1535 13.9592 19.0238 14.3441C18.9006 14.7095 18.785 14.8669 18.6598 14.969C18.5346 15.071 18.357 15.1525 17.9743 15.1993C17.5712 15.2487 17.0396 15.25 16.2403 15.25H10.9374C9.52065 15.25 8.53759 15.2482 7.79692 15.1432C7.08211 15.0418 6.70448 14.8576 6.43194 14.5701C6.11178 14.2324 5.93909 13.9018 5.83719 13.3068C5.72603 12.6578 5.70804 11.749 5.70804 10.26L5.70803 7.36996Z" fill="white"/>
<path fill-rule="evenodd" clip-rule="evenodd" d="M7.49996 22.25C6.25732 22.25 5.24996 21.2426 5.24996 20C5.24996 18.7573 6.25732 17.75 7.49996 17.75C8.7426 17.75 9.74996 18.7573 9.74996 20C9.74996 21.2426 8.7426 22.25 7.49996 22.25ZM6.74996 20C6.74996 20.4142 7.08575 20.75 7.49996 20.75C7.91417 20.75 8.24996 20.4142 8.24996 20C8.24996 19.5857 7.91417 19.25 7.49996 19.25C7.08575 19.25 6.74996 19.5857 6.74996 20Z" fill="white"/>
<path fill-rule="evenodd" clip-rule="evenodd" d="M16.5 22.25C15.2573 22.25 14.25 21.2427 14.25 20C14.25 18.7574 15.2573 17.75 16.5 17.75C17.7426 17.75 18.75 18.7574 18.75 20C18.75 21.2427 17.7426 22.25 16.5 22.25ZM15.75 20C15.75 20.4142 16.0857 20.75 16.5 20.75C16.9142 20.75 17.25 20.4142 17.25 20C17.25 19.5858 16.9142 19.25 16.5 19.25C16.0857 19.25 15.75 19.5858 15.75 20Z" fill="white"/>
</svg>
