<svg width="24" height="25" viewBox="0 0 24 25" fill="none" xmlns="http://www.w3.org/2000/svg">
<path d="M16.0303 10.5303C16.3232 10.2374 16.3232 9.76256 16.0303 9.46967C15.7374 9.17678 15.2626 9.17678 14.9697 9.46967L10.5 13.9393L9.03033 12.4697C8.73744 12.1768 8.26256 12.1768 7.96967 12.4697C7.67678 12.7626 7.67678 13.2374 7.96967 13.5303L9.96967 15.5303C10.2626 15.8232 10.7374 15.8232 11.0303 15.5303L16.0303 10.5303Z" fill="white"/>
<path fill-rule="evenodd" clip-rule="evenodd" d="M12 1.75C6.06294 1.75 1.25 6.56294 1.25 12.5C1.25 18.4371 6.06294 23.25 12 23.25C17.9371 23.25 22.75 18.4371 22.75 12.5C22.75 6.56294 17.9371 1.75 12 1.75ZM2.75 12.5C2.75 7.39137 6.89137 3.25 12 3.25C17.1086 3.25 21.25 7.39137 21.25 12.5C21.25 17.6086 17.1086 21.75 12 21.75C6.89137 21.75 2.75 17.6086 2.75 12.5Z" fill="white"/>
</svg>
