<svg width="362" height="60" viewBox="0 0 362 60" fill="none" xmlns="http://www.w3.org/2000/svg">
<path d="M1 30C1 22.8832 1.00209 17.6456 1.53709 13.637C2.06841 9.65585 3.10866 7.03963 5.07414 5.07414C7.04089 3.10739 9.64361 2.06793 13.5929 1.53696C17.571 1.00212 22.7631 1 29.82 1H332.18C339.237 1 344.429 1.00212 348.407 1.53696C352.356 2.06793 354.959 3.10739 356.926 5.07414C358.891 7.03963 359.932 9.65585 360.463 13.637C360.998 17.6456 361 22.8832 361 30C361 37.1168 360.998 42.3544 360.463 46.363C359.932 50.3441 358.891 52.9604 356.926 54.9259C354.959 56.8926 352.356 57.9321 348.407 58.463C344.429 58.9979 339.237 59 332.18 59H29.82C22.7631 59 17.571 58.9979 13.5929 58.463C9.64361 57.9321 7.04089 56.8926 5.07414 54.9259C3.10866 52.9604 2.06841 50.3441 1.53709 46.363C1.00209 42.3544 1 37.1168 1 30Z" stroke="#6696F2" stroke-width="2"/>
</svg>
