<svg width="20" height="18" viewBox="0 0 20 18" fill="none" xmlns="http://www.w3.org/2000/svg">
<path d="M4.03653 1.33789H0.876221M4.28935 1.33789L6.56477 9.58277C6.7547 10.2329 7.14915 10.8049 7.68983 11.2139C8.2305 11.623 8.88869 11.8475 9.56706 11.8543H18.7741V1.33789H4.28935ZM11.4106 15.5351C11.4106 16.4063 10.7031 17.1125 9.83042 17.1125C8.95773 17.1125 8.25027 16.4063 8.25027 15.5351C8.25027 14.6639 8.95773 13.9576 9.83042 13.9576C10.7031 13.9576 11.4106 14.6639 11.4106 15.5351ZM18.7846 15.5351C18.7846 16.4063 18.0772 17.1125 17.2045 17.1125C16.3318 17.1125 15.6243 16.4063 15.6243 15.5351C15.6243 14.6639 16.3318 13.9576 17.2045 13.9576C18.0772 13.9576 18.7846 14.6639 18.7846 15.5351Z" stroke="white" stroke-linecap="round" stroke-linejoin="round"/>
</svg>
