<svg width="18" height="13" viewBox="0 0 18 13" fill="none" xmlns="http://www.w3.org/2000/svg">
<path fill-rule="evenodd" clip-rule="evenodd" d="M9.27052 3.10398C11.7576 3.10408 14.1496 4.02616 15.9521 5.67964C16.0879 5.8073 16.3048 5.80569 16.4385 5.67603L17.736 4.41257C17.8037 4.34681 17.8414 4.25773 17.8409 4.16505C17.8403 4.07237 17.8015 3.98372 17.733 3.91873C13.002 -0.455983 5.53829 -0.455983 0.807275 3.91873C0.738743 3.98368 0.699859 4.07229 0.699227 4.16497C0.698595 4.25766 0.736267 4.34676 0.803908 4.41257L2.10177 5.67603C2.23537 5.80588 2.45249 5.8075 2.58814 5.67964C4.39088 4.02606 6.78317 3.10397 9.27052 3.10398ZM9.26717 7.32425C10.6245 7.32417 11.9334 7.83591 12.9395 8.76004C13.0756 8.89119 13.2899 8.88835 13.4226 8.75363L14.7099 7.43432C14.7777 7.36512 14.8153 7.27124 14.8143 7.17369C14.8133 7.07614 14.7738 6.98306 14.7047 6.91527C11.6408 4.02442 6.8961 4.02442 3.83227 6.91527C3.76306 6.98306 3.72357 7.07619 3.72266 7.17377C3.72176 7.27135 3.7595 7.36522 3.82744 7.43432L5.11435 8.75363C5.247 8.88835 5.46136 8.89119 5.59745 8.76004C6.6029 7.83652 7.91074 7.32482 9.26717 7.32425ZM11.7916 10.1178C11.7935 10.2232 11.7565 10.3247 11.6892 10.3985L9.51249 12.8533C9.44868 12.9254 9.36169 12.966 9.27092 12.966C9.18015 12.966 9.09316 12.9254 9.02935 12.8533L6.85232 10.3985C6.78507 10.3247 6.74808 10.2231 6.75007 10.1177C6.75206 10.0124 6.79287 9.9126 6.86286 9.84199C8.25296 8.52809 10.2889 8.52809 11.679 9.84199C11.7489 9.91266 11.7897 10.0125 11.7916 10.1178Z" fill="black"/>
</svg>
