<svg width="18" height="13" viewBox="0 0 18 13" fill="none" xmlns="http://www.w3.org/2000/svg">
<path fill-rule="evenodd" clip-rule="evenodd" d="M8.85841 3.10398C11.3455 3.10408 13.7375 4.02616 15.54 5.67964C15.6758 5.8073 15.8927 5.80569 16.0264 5.67603L17.3239 4.41257C17.3916 4.34681 17.4293 4.25773 17.4288 4.16505C17.4282 4.07237 17.3894 3.98372 17.3209 3.91873C12.5899 -0.455983 5.12618 -0.455983 0.395165 3.91873C0.326633 3.98368 0.287749 4.07229 0.287117 4.16497C0.286485 4.25766 0.324158 4.34676 0.391798 4.41257L1.68966 5.67603C1.82326 5.80588 2.04038 5.8075 2.17603 5.67964C3.97878 4.02606 6.37106 3.10397 8.85841 3.10398ZM8.85506 7.32425C10.2124 7.32417 11.5213 7.83591 12.5274 8.76004C12.6635 8.89119 12.8778 8.88835 13.0105 8.75363L14.2978 7.43432C14.3656 7.36512 14.4032 7.27124 14.4022 7.17369C14.4012 7.07614 14.3617 6.98306 14.2926 6.91527C11.2287 4.02442 6.48399 4.02442 3.42016 6.91527C3.35095 6.98306 3.31146 7.07619 3.31056 7.17377C3.30965 7.27135 3.34739 7.36522 3.41533 7.43432L4.70224 8.75363C4.83489 8.88835 5.04926 8.89119 5.18534 8.76004C6.19079 7.83652 7.49863 7.32482 8.85506 7.32425ZM11.3795 10.1178C11.3814 10.2232 11.3443 10.3247 11.277 10.3985L9.10038 12.8533C9.03657 12.9254 8.94958 12.966 8.85881 12.966C8.76804 12.966 8.68105 12.9254 8.61724 12.8533L6.44021 10.3985C6.37296 10.3247 6.33597 10.2231 6.33796 10.1177C6.33995 10.0124 6.38076 9.9126 6.45075 9.84199C7.84085 8.52809 9.87677 8.52809 11.2669 9.84199C11.3368 9.91266 11.3776 10.0125 11.3795 10.1178Z" fill="white"/>
</svg>
